<?xml version="1.0" standalone="no"?>
<!DOCTYPE svg PUBLIC "-//W3C//DTD SVG 20010904//EN"
 "http://www.w3.org/TR/2001/REC-SVG-20010904/DTD/svg10.dtd">
<svg version="1.0" xmlns="http://www.w3.org/2000/svg"
 width="60.000000pt" height="60.000000pt" viewBox="0 0 60.000000 60.000000"
 preserveAspectRatio="xMidYMid meet">

<g transform="translate(0.000000,60.000000) scale(0.100000,-0.100000)"
fill="#000000" stroke="none">
<path d="M248 541 c-25 -16 -49 -34 -52 -40 -4 -6 -31 -26 -59 -44 -197 -126
-110 -429 123 -429 76 0 151 39 189 97 14 22 42 60 63 83 47 55 61 99 56 173
-8 114 -93 189 -213 189 -50 0 -69 -5 -107 -29z m224 -10 c63 -44 83 -84 83
-171 0 -65 -4 -82 -25 -113 -14 -20 -28 -37 -31 -37 -4 0 -7 25 -7 55 0 36 -8
70 -22 96 -11 23 -18 49 -15 59 6 20 -19 45 -35 35 -17 -11 -89 25 -84 40 8
21 -18 30 -31 12 -8 -11 -27 -17 -54 -17 -45 0 -50 6 -23 27 62 50 181 57 244
14z m-114 -70 c78 -40 122 -111 122 -196 0 -134 -89 -225 -220 -225 -130 0
-220 90 -220 220 0 90 43 160 125 203 43 23 146 22 193 -2z"/>
<path d="M504 369 c-10 -17 13 -36 27 -22 12 12 4 33 -11 33 -5 0 -12 -5 -16
-11z"/>
<path d="M160 390 c0 -5 5 -10 10 -10 6 0 10 5 10 10 0 6 -4 10 -10 10 -5 0
-10 -4 -10 -10z"/>
<path d="M304 369 c-10 -17 13 -36 27 -22 12 12 4 33 -11 33 -5 0 -12 -5 -16
-11z"/>
<path d="M110 344 c-11 -12 -10 -18 3 -32 16 -15 18 -15 34 0 13 14 14 20 3
32 -7 9 -16 16 -20 16 -4 0 -13 -7 -20 -16z"/>
<path d="M344 269 c-10 -17 13 -36 27 -22 12 12 4 33 -11 33 -5 0 -12 -5 -16
-11z"/>
<path d="M190 204 c-11 -12 -10 -18 3 -32 16 -15 18 -15 34 0 13 14 14 20 3
32 -7 9 -16 16 -20 16 -4 0 -13 -7 -20 -16z"/>
<path d="M324 149 c-10 -17 13 -36 27 -22 12 12 4 33 -11 33 -5 0 -12 -5 -16
-11z"/>
</g>
</svg>
